<?xml version="1.0" encoding="utf-8"?>
<!-- Generator: Adobe Illustrator 16.0.0, SVG Export Plug-In . SVG Version: 6.00 Build 0)  -->
<!DOCTYPE svg PUBLIC "-//W3C//DTD SVG 1.1//EN" "http://www.w3.org/Graphics/SVG/1.1/DTD/svg11.dtd">
<svg version="1.1" id="Layer_1" xmlns="http://www.w3.org/2000/svg" xmlns:xlink="http://www.w3.org/1999/xlink" x="0px" y="0px"
	 width="240px" height="240px" viewBox="0 0 240 240" enable-background="new 0 0 240 240" xml:space="preserve">
<circle fill="#8BC862" cx="120" cy="119.949" r="119.948"/>
<g>
	<path fill-rule="evenodd" clip-rule="evenodd" stroke="#000000" stroke-width="0.216" stroke-miterlimit="2.6131" d="
		M120.357,72.838c9.003,0,17.434,2.526,24.62,6.908L129.553,95.17c-2.87-1.055-5.967-1.63-9.195-1.63s-6.326,0.575-9.197,1.629
		L95.736,79.746C102.923,75.364,111.354,72.838,120.357,72.838L120.357,72.838z M160.944,95.712
		c4.381,7.187,6.909,15.618,6.909,24.621c0,9.003-2.528,17.435-6.909,24.62l-15.424-15.424c1.054-2.87,1.63-5.968,1.63-9.196
		c0-3.227-0.576-6.325-1.63-9.196L160.944,95.712L160.944,95.712z M144.978,160.921c-7.187,4.381-15.617,6.909-24.62,6.909
		s-17.434-2.528-24.621-6.909l15.424-15.425c2.872,1.054,5.969,1.63,9.197,1.63c3.228,0,6.325-0.574,9.195-1.63L144.978,160.921
		L144.978,160.921z M79.77,144.953c-4.381-7.186-6.908-15.617-6.908-24.62c0-9.002,2.527-17.434,6.908-24.621l15.424,15.425
		c-1.055,2.871-1.63,5.969-1.63,9.196c0,3.229,0.576,6.327,1.63,9.197L79.77,144.953L79.77,144.953z M123.133,48.427
		c1.145-0.174,1.932-0.966,2.323-2.167l4.123-11.657c0.379-0.65,0.92-1.019,1.652-1.02c1.669,0.063,3.382,0.175,5.098,0.573
		c1.745,0.244,3.384,0.753,4.965,1.292c0.683,0.263,1.056,0.801,1.176,1.544l-0.327,12.359c-0.066,1.262,0.386,2.284,1.395,2.858
		c2.89,0.987,4.054,1.458,6.811,2.729c1.16,0.324,2.223-0.104,3.068-1.089l8.268-9.191c0.599-0.456,1.242-0.589,1.918-0.311
		c1.516,0.697,3.057,1.457,4.489,2.48c1.519,0.893,2.839,1.992,4.094,3.094c0.529,0.504,0.669,1.144,0.495,1.876l-5.033,11.293
		c-0.566,1.191-0.515,2.355,0.291,3.292c2.335,2.023,3.021,2.692,5.104,4.974c0.958,0.78,2.123,0.802,3.299,0.204l11.157-5.327
		c0.727-0.193,1.371-0.069,1.888,0.446c1.137,1.226,2.269,2.517,3.201,4.011c1.061,1.406,1.86,2.925,2.598,4.425
		c0.297,0.668,0.181,1.314-0.261,1.922l-8.973,8.508c-0.97,0.876-1.369,1.961-0.999,3.124c0.104,0.209,0.206,0.417,0.309,0.626
		c1.063,2.123,1.359,2.763,2.125,4.876c0.155,0.394,0.305,0.789,0.452,1.185c0.598,1.007,1.637,1.438,2.905,1.339l12.347-0.651
		c0.745,0.1,1.295,0.459,1.574,1.135c0.579,1.566,1.132,3.193,1.421,4.93c0.443,1.705,0.6,3.414,0.706,5.082
		c0.019,0.73-0.335,1.282-0.976,1.676l-11.545,4.428c-1.188,0.421-1.96,1.229-2.105,2.375c0.161,2.486,0.193,4.95,0.097,7.438
		c0.176,1.145,0.968,1.932,2.168,2.322l11.657,4.123c0.649,0.379,1.019,0.922,1.019,1.652c-0.062,1.669-0.175,3.383-0.571,5.099
		c-0.245,1.743-0.754,3.383-1.293,4.965c-0.263,0.682-0.8,1.056-1.543,1.175l-12.36-0.327c-1.264-0.065-2.286,0.387-2.858,1.395
		c-0.987,2.89-1.458,4.053-2.729,6.81c-0.324,1.161,0.104,2.225,1.09,3.068l9.189,8.27c0.458,0.599,0.59,1.241,0.311,1.917
		c-0.696,1.517-1.457,3.058-2.479,4.49c-0.893,1.518-1.991,2.839-3.094,4.092c-0.504,0.53-1.145,0.67-1.877,0.497l-11.292-5.034
		c-1.191-0.566-2.355-0.513-3.291,0.291c-1.61,1.858-3.129,3.488-4.973,5.106c-0.78,0.956-0.803,2.121-0.207,3.297l5.328,11.158
		c0.192,0.727,0.069,1.37-0.446,1.889c-1.226,1.134-2.516,2.268-4.011,3.2c-1.405,1.061-2.926,1.86-4.424,2.597
		c-0.669,0.295-1.314,0.181-1.924-0.26l-8.508-8.972c-0.876-0.974-1.962-1.371-3.125-1c-2.201,1.085-4.386,2.028-6.686,2.884
		c-1.009,0.599-1.44,1.638-1.341,2.907l0.651,12.347c-0.1,0.745-0.461,1.293-1.135,1.573c-1.565,0.581-3.192,1.134-4.93,1.422
		c-1.704,0.442-3.416,0.6-5.082,0.707c-0.731,0.018-1.281-0.337-1.677-0.977l-4.427-11.545c-0.422-1.188-1.229-1.96-2.374-2.105
		c-3.071,0.198-4.366,0.215-7.438,0.097c-1.145,0.176-1.932,0.968-2.323,2.168l-4.124,11.656c-0.377,0.65-0.919,1.02-1.651,1.021
		c-1.668-0.063-3.382-0.176-5.098-0.573c-1.744-0.244-3.384-0.753-4.965-1.292c-0.682-0.263-1.057-0.802-1.176-1.544l0.327-12.36
		c0.066-1.263-0.386-2.283-1.394-2.857c-1.042-0.356-2.078-0.72-3.122-1.066l0.092,0.098l-1.006-0.402l0.134-0.006
		c-0.969-0.453-1.938-0.905-2.909-1.352c-1.16-0.325-2.225,0.102-3.068,1.09l-8.271,9.19c-0.598,0.456-1.239,0.588-1.916,0.31
		c-1.518-0.696-3.058-1.456-4.491-2.48c-1.518-0.893-2.838-1.99-4.093-3.093c-0.529-0.505-0.668-1.146-0.495-1.877l5.032-11.293
		c0.567-1.191,0.514-2.354-0.29-3.291c-2.335-2.023-3.021-2.692-5.105-4.975c-0.957-0.778-2.123-0.801-3.298-0.204l-11.158,5.327
		c-0.727,0.193-1.371,0.069-1.888-0.445c-1.135-1.227-2.268-2.518-3.2-4.011c-1.061-1.406-1.861-2.926-2.597-4.425
		c-0.296-0.669-0.18-1.313,0.26-1.923l8.972-8.508c0.972-0.877,1.37-1.963,1-3.126c-1.338-2.714-1.823-3.832-2.885-6.687
		c-0.598-1.007-1.636-1.438-2.905-1.34l-12.347,0.651c-0.746-0.099-1.293-0.459-1.575-1.134c-0.58-1.566-1.132-3.192-1.422-4.931
		c-0.441-1.704-0.599-3.414-0.706-5.082c-0.018-0.73,0.336-1.282,0.976-1.676l11.545-4.427c1.189-0.423,1.96-1.229,2.106-2.376
		c-0.198-3.069-0.215-4.363-0.098-7.438c-0.175-1.145-0.967-1.932-2.167-2.323l-11.657-4.124c-0.65-0.377-1.019-0.918-1.02-1.65
		c0.064-1.669,0.176-3.383,0.573-5.099c0.244-1.744,0.753-3.384,1.292-4.965c0.263-0.682,0.801-1.057,1.543-1.176l12.36,0.328
		c1.262,0.066,2.285-0.387,2.858-1.394c0.988-2.89,1.458-4.055,2.73-6.811c0.323-1.16-0.104-2.224-1.09-3.067l-9.191-8.27
		c-0.456-0.597-0.589-1.239-0.311-1.916c0.697-1.518,1.457-3.059,2.481-4.491c0.892-1.518,1.991-2.838,3.094-4.093
		c0.504-0.53,1.144-0.669,1.876-0.496l11.293,5.033c1.19,0.567,2.355,0.514,3.292-0.29c2.023-2.335,2.692-3.021,4.973-5.105
		c0.78-0.957,0.802-2.122,0.204-3.297l-5.326-11.159c-0.193-0.727-0.07-1.371,0.446-1.888c1.225-1.135,2.517-2.268,4.01-3.199
		c1.406-1.061,2.926-1.861,4.425-2.597c0.668-0.297,1.313-0.181,1.923,0.26l8.508,8.972c0.876,0.972,1.961,1.369,3.124,1
		c2.19-1.079,4.402-2.036,6.688-2.886c1.006-0.598,1.438-1.636,1.338-2.905L96.07,37.601c0.1-0.746,0.46-1.293,1.135-1.575
		c1.566-0.58,3.192-1.133,4.93-1.421c1.705-0.442,3.415-0.6,5.082-0.707c0.73-0.018,1.282,0.336,1.677,0.976l4.426,11.545
		c0.422,1.189,1.229,1.959,2.376,2.105C118.766,48.327,120.061,48.31,123.133,48.427L123.133,48.427z"/>
	<path fill="none" stroke="#000000" stroke-width="7.9999" stroke-miterlimit="2.6131" d="M101.853,122.686
		c-7.628-13.222-4.313-20.587,3.05-28.629c7.094-6.893,13.341-16.093,13.467-29.902c-5.108,12.03-12.586,20.156-26.57,29.471
		C81.651,100.448,81.593,116.283,101.853,122.686L101.853,122.686z M114.978,74.764c-6.214,9.867-10.531,13.248-16.638,18.247
		c-9.126,7.474-9.953,16.868-1.132,25.503c-4.582-9.18-3.972-15.838,0.349-20.695C109.644,85.008,111.352,83.559,114.978,74.764
		L114.978,74.764z"/>
	<path fill-rule="evenodd" clip-rule="evenodd" fill="#FFFFFF" d="M101.853,122.686c-7.628-13.222-4.313-20.587,3.05-28.629
		c7.094-6.893,13.341-16.093,13.467-29.902c-5.108,12.03-12.586,20.156-26.57,29.471C81.651,100.448,81.593,116.283,101.853,122.686
		L101.853,122.686z M114.978,74.764c-6.214,9.867-10.531,13.248-16.638,18.247c-9.126,7.474-9.953,16.868-1.132,25.503
		c-4.582-9.18-3.972-15.838,0.349-20.695C109.644,85.008,111.352,83.559,114.978,74.764L114.978,74.764z"/>
	<path fill="#FFFFFF" stroke="#FFFFFF" stroke-width="1.0001" stroke-miterlimit="2.6131" d="M106.082,122.391
		c-0.781,0.029-0.627,0.766,0.38,1.603c3.82,2.592,7.796,4.161,11.818,4.559c-0.56,0.725-0.908,1.738-0.908,2.855
		c0,1.135,0.359,2.161,0.934,2.888c-3.187,0.31-6.339,1.379-9.365,3.131c-0.634,0.29-0.739,0.933-0.315,1.133l11.733-0.034
		l11.731,0.034c0.425-0.2,0.321-0.843-0.314-1.133c-3.025-1.752-6.178-2.821-9.364-3.131c0.573-0.727,0.933-1.753,0.933-2.888
		c0-1.117-0.349-2.131-0.908-2.855c4.021-0.397,7.997-1.967,11.818-4.559c1.008-0.837,1.16-1.573,0.381-1.603l-14.276,0.027
		L106.082,122.391L106.082,122.391z M135.777,116.914c-0.857,1.368,0.432,2.78,2.043,1.891c1.234-1.804,4.261-1.689,3.02,0.978
		c-2.006,4.016-8.626,7.728-10.19,14.344c-0.681,1.332,1.291,3.281,2.804,1.052c1.979-6.231,6.05-8.726,9.355-13.046
		C147.066,116.234,139.812,112.383,135.777,116.914L135.777,116.914z M120.357,103.293c2.656,0.191,3.231,3.849,0.947,5.421
		c-0.947,0.888-0.561,1.527,0.814,1.833c1.182,0.208,3.218,0.655,2.195,1.655l-3.957,0.01l-3.958-0.01
		c-1.022-1,1.012-1.447,2.197-1.655c1.374-0.306,1.762-0.945,0.814-1.833C117.126,107.143,117.7,103.485,120.357,103.293
		L120.357,103.293z M106.082,119.875c-0.781-0.031-0.627-0.765,0.38-1.602c4.478-3.038,9.167-4.673,13.896-4.661
		c4.728-0.012,9.418,1.623,13.896,4.661c1.008,0.837,1.16,1.571,0.381,1.602l-14.276-0.028L106.082,119.875L106.082,119.875z"/>
	<path fill-rule="evenodd" clip-rule="evenodd" fill="#FFFFFF" d="M70.237,153.533l-0.5,0.351c-0.9,0.629,1.883,3.874,3.037,2.574
		C73.674,155.403,71.123,152.913,70.237,153.533L70.237,153.533z M82.119,167.378l-2.349-2.043l-0.951,1.096l2.349,2.041
		L82.119,167.378L82.119,167.378z M92.522,172.698c0.569-1.039,0.654-2.952-1.357-4.259c-1.73-1.124-3.864-0.807-5.388,1.541
		c-1.507,2.319-1.01,4.359,0.776,5.521c1.684,1.095,3.302,0.691,4.529-0.585l-1.403-0.911c-0.703,0.714-1.531,0.801-2.308,0.297
		c-1.188-0.771-0.96-2.167-0.176-3.373c1.232-1.899,2.516-1.706,3.189-1.267c1.16,0.753,0.883,1.65,0.734,2.126L92.522,172.698
		L92.522,172.698z M92.369,175.696c-0.419,0.9-0.678,2.639,1.971,3.876c0.637,0.296,2.951,1.139,3.969-1.045
		c0.608-1.304-0.113-2.133-0.991-2.836l-1.566-1.262c-0.27-0.211-0.679-0.549-0.415-1.115c0.306-0.657,1.092-0.548,1.668-0.28
		c1.325,0.617,1.087,1.442,0.978,1.785l1.455,0.679c0.405-0.895,0.487-2.628-1.736-3.666c-2.355-1.098-3.455,0.126-3.832,0.935
		c-0.745,1.598,0.265,2.387,1.31,3.206l0.693,0.545c0.684,0.542,1.159,0.946,0.896,1.514c-0.359,0.768-1.238,0.567-1.956,0.232
		c-1.324-0.618-1.168-1.479-0.99-1.89L92.369,175.696L92.369,175.696z M103.597,174.298l-1.582-0.545l-2.607,7.572l1.582,0.545
		L103.597,174.298L103.597,174.298z M103.462,182.524l1.59,0.396l0.759-3.04l1.678,0.418c1.201,0.299,1.163,0.727,0.899,1.786
		c-0.199,0.802-0.234,1.219-0.218,1.612l1.796,0.448l0.051-0.205c-0.313-0.216-0.243-0.497,0.04-1.634
		c0.362-1.451,0.075-1.775-0.494-2.215c0.834-0.068,1.45-0.697,1.664-1.552c0.166-0.671,0.168-2.292-1.899-2.807l-3.928-0.979
		L103.462,182.524L103.462,182.524z M106.138,178.569l0.519-2.077l2.024,0.506c0.952,0.236,0.986,0.889,0.882,1.299
		c-0.191,0.77-0.676,0.959-1.52,0.748L106.138,178.569L106.138,178.569z M118.335,181.015l-3.1-0.271l-0.126,1.444l3.099,0.272
		L118.335,181.015L118.335,181.015z M124.123,176.698l-1.667,0.146l0.699,7.978l1.667-0.146L124.123,176.698L124.123,176.698z
		 M131.739,181.292l-0.023,0.005l-4.185-4.868l-1.729,0.336l1.527,7.861l1.533-0.297l-1.09-5.606l0.021-0.005l4.3,4.982l1.643-0.319
		l-1.529-7.861l-1.532,0.299L131.739,181.292L131.739,181.292z M136.359,182.866l3.335-0.956c2.541-0.729,2.512-3.296,2.039-4.947
		c-0.418-1.459-1.587-3.514-4.183-2.77l-3.398,0.975L136.359,182.866L136.359,182.866z M136.11,176.045l1.544-0.441
		c0.685-0.197,1.821-0.325,2.473,1.947c0.362,1.266,0.301,2.71-1.008,3.086l-1.564,0.448L136.11,176.045L136.11,176.045z
		 M142.96,172.045l-1.517,0.707l3.385,7.259l1.516-0.708L142.96,172.045L142.96,172.045z M149.354,176.049l2.56-1.478l1.27,1.173
		l1.575-0.908l-6.448-5.526l-1.673,0.965l1.533,8.364l1.525-0.881L149.354,176.049L149.354,176.049z M148.354,171.372l0.019-0.012
		l2.443,2.248l-1.768,1.02L148.354,171.372L148.354,171.372z M158.606,167.254l-2.419,1.959l0.913,1.126l2.417-1.957
		L158.606,167.254L158.606,167.254z M171.041,158.649l-6.256-4.38l1.599-0.604l3.256,2.278l1.658-2.37
		c1.149-1.642-2.052-2.053-4.562-1.598l-0.011-0.477c2.703-0.938,7.342,0.032,5.911,2.076l-2.099,2.999l1.312,0.919l3.06-4.366
		l1.403-2.756c0,0-2.704-0.185-3.251-2.947c0,0-2.234,0.505-4.215,1.745l-0.231-0.51c4.66-2.77,8.742-3.218,6.326-0.473
		c0,0,0.38,1.328,1.846,1.254l1.487-2.921l0.084-0.03l0.79-2.06l-7.128-2.737l1.371-0.892l6.233,2.393l0.461-1.205l0.014-0.006
		l0.552-1.606l-7.22-2.486l1.341-0.939l6.311,2.174l0.421-1.221l0.032-0.018l0.216-1.016l1.299-0.916l-0.242,1.143l-0.739,0.514
		l0.825-0.428l-1.429,4.15l0.035-0.018l-1.799,4.688l0.059-0.021l-3.363,6.603l-0.922,0.34l1.06-0.239l-5.289,7.555l-1.564,0.351
		L171.041,158.649L171.041,158.649z M180.848,134.506c0.719,0.224,2.276-0.068,1.948-1.456c0.006-0.693-1.142-0.831-1.922,0.571
		C180.456,134.085,180.632,134.264,180.848,134.506L180.848,134.506z M178.869,135.35l-0.493,2.318l-1.142-0.242l0.507-2.387
		c-0.068-0.264-2.354-0.322-1.599-1.283c1.435-1.051,3.399-1.915,3.281-1.014l-0.287,1.346c0.502,0.232,0.982,0.405,0.982,0.405
		c0.114-3.13,3.448-2.888,3.487-1.486C183.589,135.694,180.501,135.803,178.869,135.35L178.869,135.35z M175.149,119.803
		l1.119-0.499c0.103,2.017-1.376,3.171-3.165,3.763l-0.232-0.418C174.282,121.96,175.199,121.098,175.149,119.803L175.149,119.803z
		 M184.961,123.93l0.021,0.214l-0.797-0.056l-0.145,0.168l-0.007-0.178l-0.147-0.011l-0.037-0.216l0.178,0.012l-0.071-1.994
		l-2.159,0.076l-0.089-2.544c-0.09-2.595-3.771-1.142-2.757,0.934c0.729-0.637,1.61,0.153,1.224,1.563
		c-0.458,0.903-1.649,0.701-1.893-0.267l-1.524,1.309l-0.357-0.738l1.387-1.233c0.305-4.757,4.983-4.638,5.001-2.127l0.074,2.107
		l1.062-0.037l-0.168-4.828l0.158-0.176l-0.276-1.968l-7.563,1.063l0.769-1.446l6.586-0.925l-0.509-2.694l-2.69,3.005l-1.613,0.285
		c-1.301-1.753-0.39-4.019,1.148-4.627l2.866-0.505l-0.148-0.841l0.212-0.318l-0.792-2.589c0,0-2.072,1.746-4.388,0.138
		c0,0-1.255,1.915-1.818,4.184l-0.521-0.205c1.428-5.231,4.054-8.387,4.223-4.736c0,0,1.194,0.691,2.197-0.381l-0.958-3.133
		l0.082-0.166l-0.828-1.951l-7.028,2.984l0.36-1.611l6.144-2.607l-0.464-1.094l0.111-0.288l-0.653-1.229l-6.743,3.585l0.228-1.621
		l2.184-1.162c-1.767-0.501-1.132-3.799-0.455-4.199l2.322-1.235l-0.385-0.726l0.414-1.523l3.896,7.327l-0.076,0.288l0.657,1.548
		c1.916-3.428,6.785-1.099,3.376,7.864l-0.347-0.818c2.401-5.317-0.335-9.668-2.525-5.858l0.499,1.17l-0.023,0.059l2.118,6.929
		l-0.118,0.247l0.717,4.069l0.086-0.12l0.717,5.094l-0.094,0.13l0.272,7.751l-0.724,0.836L184.961,123.93L184.961,123.93z
		 M179.547,109.877c-0.84,0.148-1.382,1.8,0.063,2.856l2.994-3.396L179.547,109.877L179.547,109.877z M175.261,94.398l2.478-1.317
		l-1.252-2.354l-2.77,1.472C173.003,92.974,173.984,94.15,175.261,94.398L175.261,94.398z M163.591,79.952
		c-0.104-1.783,0.953-2.641,1.84-1.656l2.683,2.979l1.424-1.282l-3.688-4.095l-1.56-1.455l-5.208,5.584l-0.313-1.606l4.553-4.881
		l-0.78-0.728l-1.814-1.417l-4.701,6.018l-0.452-1.574l4.109-5.26l-1.017-0.794l-0.021-0.132l-0.122-0.087l-0.323-1.544l1.17,0.819
		l0.033,0.148l2.89,2.258l-0.011-0.153l3.574,3.332l0.002-0.133l6.102,6.776l-0.033,1.578l-1.469-1.632l-5.676,5.109l-0.206-1.667
		l2.732-2.461l-1.797-1.994C164.789,79.201,164.081,81.668,163.591,79.952L163.591,79.952z M156.14,68.535
		c0.479,0.378,1.314,0.005,1.018-0.756c-0.121-0.404-1.493-0.875-1.737-0.132C155.475,68.239,155.997,68.435,156.14,68.535
		L156.14,68.535z M155.048,68.302c-0.521,1.168,0.089,2.061,1.437,2.538l0.349,1.627c-4.514-3.586-5.653,2.726,0.566,0.801
		l-0.961,1.371c-3.794,0.708-5.845-3.54-1.68-4.497c-1.265-1.63,0.724-4.897,2.384-3.161
		C158.936,68.917,156.429,70.311,155.048,68.302L155.048,68.302z M154.053,63.174l-0.336-1.237l1.269-0.255l0.282,1.225
		L154.053,63.174L154.053,63.174z M154.099,66.594l-0.208-0.068l0.196-0.314l-1.764-0.899l-3.467,6.804l-0.775-1.473l1.622-3.184
		c-1.911,0.219-2.812-1.315-2.812-1.315c-0.495,0.433-0.931,0.485-0.993,0.608c0.053,1.084,0.073,2.775,0.563,3.691l-0.525,0.186
		c-0.635-2.322-2.127-8.344,0.795-5.819c0,0,0.75-0.282,1.042-1.816l-1.975-1.006l-0.025-0.073l-0.309-0.106l-0.036,0.081
		l-0.216-0.039l0.05-0.111l-1.519-0.523l-2.486,7.221l-0.987-1.357l1.196-3.477l-2.537-0.874c-1.021-0.352-0.445,2.151-1.707,0.887
		c-0.955-1.508-0.447-2.771,0.806-2.34l3.79,1.306l0.623-1.813l-5.241-1.806l-0.736-1.396l8.621,2.969l0.387,0.734l0.038-0.084
		l-0.245-0.682l8.543,4.354l0.417,1.134l0.257-0.411l0.2,0.083l-0.363,0.579l0.04,0.107l-0.081-0.042L154.099,66.594L154.099,66.594
		z M145.687,61.676l-0.072-0.203l-0.018,0.035L145.687,61.676L145.687,61.676z M151.112,64.696l-2.423-1.234
		c-0.434,1.734-1.24,2.204-1.208,2.142c0.509,0.572,1.214,1.147,2.744,0.831L151.112,64.696L151.112,64.696z M137.524,68.579
		l-0.365-1.022c7.623-1.302,2.521,10.242-2.844,0.26l0.459-0.177C138.932,74.375,143.265,68.25,137.524,68.579L137.524,68.579z
		 M136.949,58.698l-2.083-0.33l-1.229,7.537l-1.124-1.151l0.453-2.857c-0.835,0.256-1.635-0.153-1.635-0.153
		c0.209,3.474-4.514,5.217-4.676-1.217l0.399-0.078c0.094,1.744,0.663,3.387,1.637,3.365c2.155-0.118,2.191-3.8-0.133-3.498
		l-0.604-1.207c4.383,0.412,4.06-3.01-0.001-1.553l-0.515-1.087c5.473-0.581,4.728,3.237,2.826,3.553c0,0,1.295,1.617,2.946,0.326
		l0.347-2.186l-0.74-0.118l-0.915-1.239L136,57.454L136.949,58.698L136.949,58.698z M113.514,60.317l-0.066-0.536
		c-1.182-1.048-3.598-0.559-2.746,1.374C110.916,62.042,113.1,61.949,113.514,60.317L113.514,60.317z M108.98,57.749l-0.233-0.177
		l-2.094,0.6l2.104,7.341l-1.571-0.55l-1.84-6.416l-2.211,0.634c2.009,5.425,1.103,7.701-1.349,4.085
		c-0.364-0.513,1.312-0.738,1.273-0.873l-0.846-2.948l-2.23,0.64l-0.082-0.043l-1.866,0.753l2.861,7.081l-1.604-0.388l-2.501-6.189
		l-0.701,0.284l0.178,0.064l-0.871,0.387l-0.152,0.1l-0.011-0.027l-1.274,0.567l3.106,6.977l-1.602-0.34l-2.715-6.098l-1.178,0.524
		l-0.193-0.069l-1.841,1.151l4.046,6.476l-1.632-0.113l-0.48-0.769c-1.215,3.516-5.388,2.626-4.711,1.012
		c-1.781,0.702-3.307-1.181-2.184-2.211l2.069-1.292l-0.583-0.932l-3.461,2.163l-1.082-0.214l0.106,0.137l1.191,0.118l-1.992,1.556
		l4.702,6.018l-1.636,0.058l-4.109-5.26l-1.017,0.794l-0.414-0.041l-1.273,1.319l5.469,5.33l-1.587,0.26l-2.081-2.009
		c-0.269,0.83-1.063,1.251-1.063,1.251c2.965,1.821,1.684,6.69-3.68,3.133l0.166-0.373c1.483,0.923,3.155,1.399,3.695,0.588
		c1.139-1.832-1.856-3.973-2.941-1.896l-1.334-0.199c2.85-3.353-0.138-5.05-1.273-0.89l-1.186-0.201
		c2.664-4.816,5.363-2.016,4.531-0.276c0,0,2.068-0.134,1.958-2.228l-1.593-1.538l-0.521,0.539l-1.54,0.04l2.882-2.983l0.269-0.012
		l4.011-3.133l0.077,0.008l-0.086-0.109l0.041-0.045l-0.236-0.046l8.915-5.571l0.646,0.124l-0.521-0.186l4.393-1.956l-0.237-0.096
		l2.233-0.902c-3.395-1.975-0.981-6.803,7.921-3.238l-0.825,0.333c-5.274-2.494-9.671,0.167-5.901,2.421l0.979-0.395l-0.046-0.025
		l8.932-2.561l0.535,0.275l-0.337-0.255l10.104-1.241l1.274,0.933l-4.67,0.573l0.258,2.111c1.575-2.055,4.75,1.506,2.915,3.856
		l-0.943-0.675c0.168-0.635,1.488-5.187-1.817-1.936l0.518,4.223l-1.432-0.792l-0.289-2.353c-1.369,2.012-3.235,0.397-3.727-0.754
		c-0.634-2.152,1.926-2.765,3.44-1.581l-0.237-1.938L108.98,57.749L108.98,57.749z M92.501,62.134
		c-3.104-1.269-3.546-1.664-5.168-0.98c-0.223,0.1-0.414,0.185-0.685,0.306l-0.748-1.08c1.993-1.307,3.604-0.345,7.188,1.493
		L92.501,62.134L92.501,62.134z M90.622,69.052l-2.207-3.532l-1.448,0.905l1.126,1.803L85.3,69.973
		c-0.491,0.266-0.18,0.832,0.524,0.905l2.454-1.533l0.988,0.43c-2.154,1.058-1.288,1.854-1.391,2.083
		C88.187,72.094,89.137,73.186,90.622,69.052L90.622,69.052z M78.971,70.716c-2.323-0.596-3.013,0.275-4.017,1.059L73.9,71.471
		c1.1-0.97,2.719-2.323,5.47-1.066L78.971,70.716L78.971,70.716z M73.664,69.555c1.772-2.204,4.56-1.24,6.187,0.474l-0.344,0.268
		c-1.403-1.314-3.31-1.859-4.915-0.317L73.664,69.555L73.664,69.555z M65.714,85.872l1.502-0.441l-1.264,2.188l6.613,3.818
		l-1.496,0.666l-5.78-3.337l-0.645,1.117l-0.057,0.016l-0.833,1.568l6.742,3.584l-1.47,0.718l-5.894-3.134l-0.371,0.698
		l-0.336,0.832l-1.439,0.678l0.258-0.641l-0.206,0.068l2.415-4.542l0.039-0.013L65.714,85.872L65.714,85.872z M64.593,98.387
		c1.921-0.614,1.702-2.583,0.491-4.238l1.583,0.639c1.167,2.089-0.091,3.667-3.311,4.565c0.87-2.806-1.146-4.467-2.009-3.124
		c-0.41,0.831-0.158,1.741,1.457,1.001l0.186,0.471c-1.374,1.399-3.458,0.558-2.981-0.622
		C61.216,94.278,65.084,93.961,64.593,98.387L64.593,98.387z M59.816,100.95l7.303,2.232l-1.333,1.069l-3.8-1.162l-0.845,2.767
		c-0.586,1.916,2.585,1.319,4.832,0.11l0.157,0.448c-2.28,1.727-6.993,2.238-6.264-0.147l1.07-3.5l-1.533-0.469l-1.59,5.2
		l-1.38,0.82L59.13,99.5l1.38-0.817L59.816,100.95L59.816,100.95z M59.873,121.209l-0.54,0.009
		c-1.167,1.065-0.932,3.521,1.079,2.874C61.316,123.973,61.452,121.791,59.873,121.209L59.873,121.209z M56.844,125.448
		l-0.004,0.003l0.327,2.063l7.542-1.194l-0.734,1.51l-3.632,0.576l0.419,2.649c0.169,1.067,2.108-0.615,1.584,1.091
		c-0.883,1.553-2.237,1.695-2.444,0.388l-0.627-3.96l-1.894,0.3l0.857,5.417l0.004-0.008l0.682,2.38l7.34-2.105l-0.554,1.555
		l-6.417,1.841l0.082,0.285l0.084-0.168l0.739,2.416l7.302-2.23l-0.532,1.547l-6.383,1.951l0.377,1.233l-0.14,0.28l1.098,2.155
		l6.739-3.434l-0.252,1.615l-3.789,1.932l1.836,3.602c-0.563-3.292,1.733-3.661,3.218-2.246c0,0,0.431-0.65,0.81-1.487l0.298,0.278
		c0,0-0.254,0.774-0.691,1.644c2.648,2.662-3.67,3.238-1.305,0.664c-2.167-1.986-1.879,0.956-1.879,2.992l-0.543,0.276l-2.675-5.248
		l-1.165,0.592l2.905,5.702l-0.128,0.386l0.133-0.074l0.012-0.089l0.042,0.06l0.089-0.05l0.149,0.159l-0.115,0.065l1.125,1.606
		l6.255-4.38l-0.028,1.636l-1.642,1.149c2.992,0.778,2.625,4.995,0.102,4.886c0.021,0.029-2.349-0.439-2.214-3.406l-1.713,1.2
		l3.07,4.384l-0.225,1.563l-5.11-7.296l0.167-1.225l-0.197,0.108l-0.252,0.756l-4.55-8.933l0.421-1.536l-0.556,1.114l-1.263-4.129
		l-0.109,0.204l-0.664-2.313c-2.319,3.169-6.868,0.264-2.393-8.217l0.245,0.854c-3.031,4.985-0.844,9.637,1.792,6.122l-0.351-1.224
		l0.562-1.092l-0.723,1.063l-1.426-9.008l0.577-0.847l-0.73,0.778l-0.177-10.179l1.06-1.168l0.083,4.705l2.126-0.037
		c-1.879-1.781,1.994-4.567,4.14-2.497l-0.769,0.868c-0.614-0.233-5.003-2.022-2.116,1.605l4.255-0.074l-0.938,1.342l-2.37,0.041
		c1.858,1.571,0.058,3.259-1.139,3.627c-2.207,0.406-2.549-2.203-1.214-3.586l-1.951,0.033L56.844,125.448L56.844,125.448z
		 M66.154,155.769c-0.952,2.2-0.2,3.02,0.417,4.133l-0.465,0.995c-0.785-1.24-1.869-3.05-0.197-5.569L66.154,155.769L66.154,155.769
		z M64.177,160.829c-1.899-2.096-0.512-4.698,1.436-6.035l0.211,0.379c-1.517,1.182-2.354,2.979-1.083,4.806L64.177,160.829
		L64.177,160.829z"/>
</g>
</svg>
